# xmcd
#
# Track frame offsets:
#	180
#	17361
#	38372
#	49979
#	64232
#	79366
#	95754
#	111350
#	124509
#	137945
#	153715
#	168127
#	183224
#	196792
#	214008
#	226440
#	240075
#	256737
#	267705
#
# Disc length: 3788 seconds
#
# Revision: 4
# Processed by: cddbd v1.5.1PL0 Copyright (c) Steve Scherf et al.
# Submitted via: audiograbber 1.83.01
#
DISCID=fe0eca13
DTITLE=1995-12 Country Radio - 1995-12 Country Radio
DYEAR=1995
DGENRE=Country
TTITLE0=Shania Twain - (If You're Not In It For Love) I'm Outta Here
TTITLE1=Shania Twain - (If You're Not In It For Love) I'm Outta Here (Dance Mix
TTITLE1=)
TTITLE2=Neal McCoy - You Gotta Love That
TTITLE3=Lari White - Ready, Willing and Able
TTITLE4=Tracy Lawrence - If You Love Me
TTITLE5=Clay Walker - Hypnotize The Moon
TTITLE6=Linda Davis - Some Things Are Meant To Be
TTITLE7=Woody Lee - Salt And Water
TTITLE8=Brett James - Worth The Fall
TTITLE9=Smokin' Armadillos - Let Your Heart Lead Your Mind
TTITLE10=John Michael Montgomery - Cowboy Love
TTITLE11=Aaron Tippin - Without Your Love
TTITLE12=Cooter Brown - Pure Bred Redneck
TTITLE13=Diamond Rio - Walkin' Away
TTITLE14=John Anderson - Paradise
TTITLE15=Jeff Moore - Fever
TTITLE16=Toby Keith - Santa I'm Right Here
TTITLE17=Jeff Carson - Santa Got Lost In Texas
TTITLE18=Lari White - White Christmas
EXTD=
EXTT0=
EXTT1=
EXTT2=
EXTT3=
EXTT4=
EXTT5=
EXTT6=
EXTT7=
EXTT8=
EXTT9=
EXTT10=
EXTT11=
EXTT12=
EXTT13=
EXTT14=
EXTT15=
EXTT16=
EXTT17=
EXTT18=
PLAYORDER=
